/* XPM */
static char const* applogo_xpm[] = {
"64 64 3 1",
" 	c None",
".	c #666666",
"+	c #FFFFFF",
"................................................................",
"................................................................",
"................................................................",
"................................................................",
"................................................................",
"................................................................",
"................................................................",
"................................................................",
"................................................................",
"................................................................",
"................................................................",
"................................................................",
"............++++++++++++++++++++++++++++++++++++++++............",
"............++++++++++++++++++++++++++++++++++++++++............",
"............++++++++++++++++++++++++++++++++++++++++............",
"............++++++++++++++++++++++++++++++++++++++++............",
"............++++++++++++++++++++++++++++++++++++++++............",
"............++++++++++++++++++++++++++++++++++++++++............",
"............++++++++++++++++++++++++++++++++++++++++............",
"............++++++++++++++++++++++++++++++++++++++++............",
"............++++++++............................................",
"............++++++++............................................",
"............++++++++............................................",
"............++++++++............................................",
"................................................................",
"................................................................",
"................................................................",
"................................................................",
"............++++++++++++++++++++++++++++++++++++++++............",
"............++++++++++++++++++++++++++++++++++++++++............",
"............++++++++++++++++++++++++++++++++++++++++............",
"............++++++++++++++++++++++++++++++++++++++++............",
"............++++++++++++++++++++++++++++++++++++++++............",
"............++++++++++++++++++++++++++++++++++++++++............",
"............++++++++++++++++++++++++++++++++++++++++............",
"............++++++++++++++++++++++++++++++++++++++++............",
"................................................................",
"................................................................",
"................................................................",
"................................................................",
"............++++++++............................................",
"............++++++++............................................",
"............++++++++............................................",
"............++++++++............................................",
"............++++++++++++++++++++++++++++++++++++++++............",
"............++++++++++++++++++++++++++++++++++++++++............",
"............++++++++++++++++++++++++++++++++++++++++............",
"............++++++++++++++++++++++++++++++++++++++++............",
"............++++++++++++++++++++++++++++++++++++++++............",
"............++++++++++++++++++++++++++++++++++++++++............",
"............++++++++++++++++++++++++++++++++++++++++............",
"............++++++++++++++++++++++++++++++++++++++++............",
"................................................................",
"................................................................",
"................................................................",
"................................................................",
"................................................................",
"................................................................",
"................................................................",
"................................................................",
"................................................................",
"................................................................",
"................................................................",
"................................................................"};
