/* XPM */
static char const* img_certgrades_4_xpm[] = {
"20 20 3 1",
" 	c None",
".	c #000000",
"+	c #FFFFFF",
"                    ",
" .................. ",
" .++++++++++++++++. ",
" .+....+....+....+. ",
" .+....+....+....+. ",
" .+....+....+....+. ",
" .+....+....+....+. ",
" .+....+....+....+. ",
" .+....+....+....+. ",
" .+....+....+....+. ",
" .+....+....+....+. ",
" .+....+....+....+. ",
" .+....+....+....+. ",
" .+....+....+....+. ",
" .+....+....+....+. ",
" .+....+....+....+. ",
" .+....+....+....+. ",
" .++++++++++++++++. ",
" .................. ",
"                    "};
