/* XPM */
static char const* img_menu_char_xpm[] = {
"16 16 3 1",
" 	c None",
".	c #666666",
"+	c #FFFFFF",
"................",
"................",
"................",
"...++.+++++++...",
"...++.+++++++...",
"...++...........",
"...++...........",
"...++...........",
"...++...........",
"...++...........",
"...++...........",
"...++.+++++++...",
"...++.+++++++...",
"................",
"................",
"................"};
