/* XPM */
static char const* img_skillprogress_xpm[] = {
"38 17 4 1",
" 	c None",
".	c #000000",
"+	c #FFFFFF",
"@	c #CCCCCC",
"......................................",
".++++++++++++++++++++++++++++++++++++.",
".+@@@@@@+@@@@@@+@@@@@@+@@@@@@+@@@@@@+.",
".+@@@@@@+@@@@@@+@@@@@@+@@@@@@+@@@@@@+.",
".+@@@@@@+@@@@@@+@@@@@@+@@@@@@+@@@@@@+.",
".+@@@@@@+@@@@@@+@@@@@@+@@@@@@+@@@@@@+.",
".+@@@@@@+@@@@@@+@@@@@@+@@@@@@+@@@@@@+.",
".++++++++++++++++++++++++++++++++++++.",
"......................................",
"                                      ",
"                                      ",
"......................................",
".++++++++++++++++++++++++++++++++++++.",
".+@@@@@@@@@@@@@@@@@@@@@@@@@@@@@@@@@@+.",
".+@@@@@@@@@@@@@@@@@@@@@@@@@@@@@@@@@@+.",
".++++++++++++++++++++++++++++++++++++.",
"......................................"};
