/* XPM */
static char const* img_certgrades_2_xpm[] = {
"20 20 4 1",
" 	c None",
".	c #000000",
"+	c #FFFFFF",
"@	c #CCCCCC",
"                    ",
" .................. ",
" .++++++++++++++++. ",
" .+....+@@@@+@@@@+. ",
" .+....+@@@@+@@@@+. ",
" .+....+@@@@+@@@@+. ",
" .+....+@@@@+@@@@+. ",
" .+....+@@@@+@@@@+. ",
" .+....+@@@@+@@@@+. ",
" .+....+@@@@+@@@@+. ",
" .+....+@@@@+@@@@+. ",
" .+....+@@@@+@@@@+. ",
" .+....+@@@@+@@@@+. ",
" .+....+@@@@+@@@@+. ",
" .+....+@@@@+@@@@+. ",
" .+....+@@@@+@@@@+. ",
" .+....+@@@@+@@@@+. ",
" .++++++++++++++++. ",
" .................. ",
"                    "};
