/* XPM */
static char const* img_skillstatus_at2_xpm[] = {
"18 18 4 1",
" 	c None",
".	c #000000",
"+	c #FFFFFF",
"@	c #CCCCCC",
"..................",
".++++++++++++++++.",
".+..+..+@@+@@+@@+.",
".+..+..+@@+@@+@@+.",
".+..+..+@@+@@+@@+.",
".+..+..+@@+@@+@@+.",
".+..+..+@@+@@+@@+.",
".+..+..+@@+@@+@@+.",
".+..+..+@@+@@+@@+.",
".+..+..+@@+@@+@@+.",
".+..+..+@@+@@+@@+.",
".+..+..+@@+@@+@@+.",
".+..+..+@@+@@+@@+.",
".+..+..+@@+@@+@@+.",
".+..+..+@@+@@+@@+.",
".+..+..+@@+@@+@@+.",
".++++++++++++++++.",
".................."};
