/* XPM */
static char const* skill_at3_xpm[] = {
"18 18 4 1",
" 	c None",
".	c #000000",
"+	c #FFFFFF",
"@	c #CCCCCC",
"..................",
".++++++++++++++++.",
".+..+..+..+@@+@@+.",
".+..+..+..+@@+@@+.",
".+..+..+..+@@+@@+.",
".+..+..+..+@@+@@+.",
".+..+..+..+@@+@@+.",
".+..+..+..+@@+@@+.",
".+..+..+..+@@+@@+.",
".+..+..+..+@@+@@+.",
".+..+..+..+@@+@@+.",
".+..+..+..+@@+@@+.",
".+..+..+..+@@+@@+.",
".+..+..+..+@@+@@+.",
".+..+..+..+@@+@@+.",
".+..+..+..+@@+@@+.",
".++++++++++++++++.",
".................."};
