/* XPM */
static char * skill_havepre_xpm[] = {
"20 20 3 1",
" 	c None",
".	c #CCCCCC",
"+	c #FFFFFF",
"                    ",
" .................. ",
" .++++++++++++++++. ",
" .+..+..+..+..+..+. ",
" .+..+..+..+..+..+. ",
" .+..+..+..+..+..+. ",
" .+..+..+..+..+..+. ",
" .+..+..+..+..+..+. ",
" .+..+..+..+..+..+. ",
" .+..+..+..+..+..+. ",
" .+..+..+..+..+..+. ",
" .+..+..+..+..+..+. ",
" .+..+..+..+..+..+. ",
" .+..+..+..+..+..+. ",
" .+..+..+..+..+..+. ",
" .+..+..+..+..+..+. ",
" .+..+..+..+..+..+. ",
" .++++++++++++++++. ",
" .................. ",
"                    "};
