/* XPM */
static char const* skill_deps_partial_xpm[] = {
"36 36 248 2",
"  	c None",
". 	c #5E5E5E",
"+ 	c #5C5C5C",
"@ 	c #5B5B5B",
"# 	c #5A5A5A",
"$ 	c #585858",
"% 	c #555555",
"& 	c #525252",
"* 	c #505050",
"= 	c #626262",
"- 	c #636959",
"; 	c #839D21",
"> 	c #B0AD06",
", 	c #D6A600",
"' 	c #F29D00",
") 	c #FF9900",
"! 	c #F19A00",
"~ 	c #CF9F00",
"{ 	c #A6A105",
"] 	c #758A1B",
"^ 	c #4C5243",
"/ 	c #474747",
"( 	c #677352",
"_ 	c #A4AE0B",
": 	c #F09E00",
"< 	c #FD9700",
"[ 	c #F79400",
"} 	c #F29000",
"| 	c #EC8D00",
"1 	c #E78900",
"2 	c #D48900",
"3 	c #8B9108",
"4 	c #4A5237",
"5 	c #404040",
"6 	c #646464",
"7 	c #8CA41C",
"8 	c #EF9E00",
"9 	c #E18500",
"0 	c #DC8200",
"a 	c #D67E00",
"b 	c #C47F00",
"c 	c #6B7D11",
"d 	c #3D3D3D",
"e 	c #65695E",
"f 	c #B5AF05",
"g 	c #DC8100",
"h 	c #D17A00",
"i 	c #CB7600",
"j 	c #C67300",
"k 	c #878103",
"l 	c #393D34",
"m 	c #C3AD02",
"n 	c #CB7700",
"o 	c #C06F00",
"p 	c #BB6C00",
"q 	c #897901",
"r 	c #353930",
"s 	c #B5AE05",
"t 	c #F29500",
"u 	c #746901",
"v 	c #232A03",
"w 	c #0B0D06",
"x 	c #0A0A0A",
"y 	c #0D0D0D",
"z 	c #131610",
"A 	c #2C320F",
"B 	c #6A6309",
"C 	c #C67800",
"D 	c #BB6B00",
"E 	c #B56800",
"F 	c #B06400",
"G 	c #777302",
"H 	c #2F2F2F",
"I 	c #616161",
"J 	c #8BA31C",
"K 	c #7B6D01",
"L 	c #050601",
"M 	c #040404",
"N 	c #1A1A1A",
"O 	c #20211D",
"P 	c #6B610C",
"Q 	c #AA6000",
"R 	c #A55D00",
"S 	c #52640C",
"T 	c #2A2A2A",
"U 	c #657050",
"V 	c #FC9700",
"W 	c #373C01",
"X 	c #020202",
"Y 	c #252525",
"Z 	c #42481A",
"` 	c #B26700",
" .	c #AA6100",
"..	c #9F5900",
"+.	c #905B00",
"@.	c #2D3520",
"#.	c #5F5F5F",
"$.	c #A4AC0B",
"%.	c #373D02",
"&.	c #030303",
"*.	c #2C2C2C",
"=.	c #444A1F",
"-.	c #9A5500",
";.	c #945200",
">.	c #5A6204",
",.	c #232323",
"'.	c #606656",
").	c #F09D00",
"!.	c #7C6D01",
"~.	c #333333",
"{.	c #615A13",
"].	c #9A5600",
"^.	c #8F4E00",
"/.	c #814E00",
"(.	c #23271D",
"_.	c #829920",
":.	c #090904",
"<.	c #3A3B38",
"[.	c #935501",
"}.	c #894A00",
"|.	c #844700",
"1.	c #3B4C0A",
"2.	c #AFAA06",
"3.	c #766B03",
"4.	c #090909",
"5.	c #3E3E3E",
"6.	c #5C5718",
"7.	c #7E4300",
"8.	c #525301",
"9.	c #D6A400",
"0.	c #282E08",
"a.	c #484D36",
"b.	c #794000",
"c.	c #614800",
"d.	c #181818",
"e.	c #565656",
"f.	c #F29C00",
"g.	c #12130D",
"h.	c #484A46",
"i.	c #793F00",
"j.	c #733C00",
"k.	c #683C00",
"l.	c #151515",
"m.	c #121212",
"n.	c #4E4E4E",
"o.	c #6E3800",
"p.	c #683500",
"q.	c #131313",
"r.	c #EC8C00",
"s.	c #161616",
"t.	c #663300",
"u.	c #111111",
"v.	c #4F4F4F",
"w.	c #1D1E19",
"x.	c #545552",
"y.	c #613600",
"z.	c #0E0E0E",
"A.	c #4C4C4C",
"B.	c #CF9D00",
"C.	c #343A18",
"D.	c #535845",
"E.	c #553E00",
"F.	c #0C0C0C",
"G.	c #4A4A4A",
"H.	c #A59B05",
"I.	c #6F640D",
"J.	c #545023",
"K.	c #444200",
"L.	c #090A0A",
"M.	c #738318",
"N.	c #C67801",
"O.	c #2A2C27",
"P.	c #5D5E5B",
"Q.	c #643602",
"R.	c #293502",
"S.	c #474B3E",
"T.	c #D48800",
"U.	c #6F6310",
"V.	c #313131",
"W.	c #606060",
"X.	c #534F22",
"Y.	c #603600",
"Z.	c #080C04",
"`.	c #8A8A07",
" +	c #4A4E22",
".+	c #383838",
"++	c #565B41",
"@+	c #3D3E00",
"#+	c #444C32",
"$+	c #C47D00",
"%+	c #4C5027",
"&+	c #3F3F3F",
"*+	c #575B41",
"=+	c #643300",
"-+	c #5F3600",
";+	c #0B1102",
">+	c #393939",
",+	c #68750F",
"'+	c #665C17",
")+	c #464744",
"!+	c #494949",
"~+	c #60615F",
"{+	c #544F23",
"]+	c #2D3500",
"^+	c #363636",
"/+	c #877B02",
"(+	c #935502",
"_+	c #60591D",
":+	c #50543E",
"<+	c #525350",
"[+	c #575757",
"}+	c #5B5C58",
"|+	c #595D4A",
"1+	c #565125",
"2+	c #463E00",
"3+	c #010101",
"4+	c #33362D",
"5+	c #897401",
"6+	c #894B00",
"7+	c #4D3D00",
"8+	c #030500",
"9+	c #2E3129",
"0+	c #776E02",
"a+	c #463D00",
"b+	c #282828",
"c+	c #505C0A",
"d+	c #905800",
"e+	c #2D3400",
"f+	c #000000",
"g+	c #272E1B",
"h+	c #595B03",
"i+	c #814D00",
"j+	c #3D3C00",
"k+	c #090E00",
"l+	c #1D1D1D",
"m+	c #1D2117",
"n+	c #394508",
"o+	c #514E01",
"p+	c #614600",
"q+	c #683B00",
"r+	c #553C00",
"s+	c #443F00",
"t+	c #283101",
"u+	c #070901",
"v+	c #141414",
"w+	c #101010",
"x+	c #080808",
"y+	c #060606",
"                                                                        ",
"                                                                        ",
"                            . + @ # $ % & *                             ",
"                      = - ; > , ' ) ) ! ~ { ] ^ /                       ",
"                  = ( _ : ) ) ) ) ) < [ } | 1 2 3 4 5                   ",
"                6 7 8 ) ) ) ) ) ) < [ } | 1 9 0 a b c d                 ",
"              e f ) ) ) ) ) ) ) < [ } | 1 9 g a h i j k l               ",
"            e m ) ) ) ) ) ) ) < [ } | 1 9 0 a h n j o p q r             ",
"          6 s ) ) ) ) ) ) t u v w x y z A B C n j o D E F G H           ",
"        I J ) ) ) ) ) ) K L M             N O P o p E F Q R S T         ",
"        U 8 ) ) ) ) V W X                     Y Z ` F  .R ..+.@.        ",
"      #.$.) ) ) ) ) %.&.                        *.=. .R ..-.;.>.,.      ",
"      '.).) ) ) ) !.M                             ~.{...].;.^./.(.      ",
"      _.) ) ) ) t :.                                <.[.;.^.}.|.1.      ",
"    # 2.) ) ) ) 3.4.                                5.6.^.}.|.7.8.N     ",
"    $ 9.) ) ) < 0.                                    a.}.|.7.b.c.d.    ",
"    e.f.) ) < [ g.                                    h.|.7.i.j.k.l.    ",
"    % ) ) < [ } m.                                    n.7.b.j.o.p.q.    ",
"    & ) < [ } r.s.                                    & b.j.o.p.t.u.    ",
"    v.! [ } | 1 w.                                    x.j.o.p.t.y.z.    ",
"    A.B.} | 1 9 C.                                    D.o.p.t.t.E.F.    ",
"    G.H.r.1 9 0 I.Y                                 @ J.p.t.t.t.K.L.    ",
"      M.1 9 g a N.O.                                P.Q.t.t.t.t.R.      ",
"      S.T.0 a h n U.V.                            W.X.t.t.t.t.Y.Z.      ",
"      5 `.a h n j o  +.+                        I ++t.t.t.t.t.@+M       ",
"        #+$+n j o D ` %+&+                    = *+=+t.t.t.t.-+;+        ",
"        >+,+j o p E F  .'+)+!+            #.~+{+t.t.t.t.t.t.]+X         ",
"          ^+/+D E F Q R ..(+_+:+<+[+# }+|+1+Q.t.t.t.t.t.t.2+3+          ",
"            4+5+F  .R ..-.;.^.6+|.7.i.j.o.p.t.t.t.t.t.t.7+8+            ",
"              9+0+R ..-.;.^.}.|.7.i.j.o.p.t.t.t.t.t.t.a+8+              ",
"                b+c+d+;.^.}.|.7.i.j.o.p.t.t.t.t.t.-+e+f+                ",
"                  ,.g+h+i+|.7.i.j.o.p.t.t.t.t.Y.j+k+f+                  ",
"                      l+m+n+o+p+q+p.t.y.r+s+t+u+X                       ",
"                            v+m.w+z.F.x x+y+                            ",
"                                                                        ",
"                                                                        "};
