/* XPM */
static char const* skill_nopre_xpm[] = {
"18 18 4 1",
" 	c None",
".	c #FF0000",
"+	c #FFFFFF",
"@	c #CCCCCC",
"..................",
".++++++++++++++++.",
".+@@+@@+@@+@@+@@+.",
".+@@+@@+@@+@@+@@+.",
".+@@+@@+@@+@@+@@+.",
".+@@+@@+@@+@@+@@+.",
".+@@+@@+@@+@@+@@+.",
".+@@+@@+@@+@@+@@+.",
".+@@+@@+@@+@@+@@+.",
".+@@+@@+@@+@@+@@+.",
".+@@+@@+@@+@@+@@+.",
".+@@+@@+@@+@@+@@+.",
".+@@+@@+@@+@@+@@+.",
".+@@+@@+@@+@@+@@+.",
".+@@+@@+@@+@@+@@+.",
".+@@+@@+@@+@@+@@+.",
".++++++++++++++++.",
".................."};
