/* XPM */
static char * skill_nopre_xpm[] = {
"20 20 4 1",
" 	c None",
".	c #FF0000",
"+	c #FFFFFF",
"@	c #CCCCCC",
"                    ",
" .................. ",
" .++++++++++++++++. ",
" .+@@+@@+@@+@@+@@+. ",
" .+@@+@@+@@+@@+@@+. ",
" .+@@+@@+@@+@@+@@+. ",
" .+@@+@@+@@+@@+@@+. ",
" .+@@+@@+@@+@@+@@+. ",
" .+@@+@@+@@+@@+@@+. ",
" .+@@+@@+@@+@@+@@+. ",
" .+@@+@@+@@+@@+@@+. ",
" .+@@+@@+@@+@@+@@+. ",
" .+@@+@@+@@+@@+@@+. ",
" .+@@+@@+@@+@@+@@+. ",
" .+@@+@@+@@+@@+@@+. ",
" .+@@+@@+@@+@@+@@+. ",
" .+@@+@@+@@+@@+@@+. ",
" .++++++++++++++++. ",
" .................. ",
"                    "};
