/* XPM */
static char const* skill_deps_have_xpm[] = {
"36 36 333 2",
"  	c None",
". 	c #5E5E5E",
"+ 	c #5C5C5C",
"@ 	c #5B5B5B",
"# 	c #5A5A5A",
"$ 	c #585858",
"% 	c #555555",
"& 	c #525252",
"* 	c #505050",
"= 	c #626262",
"- 	c #5D675D",
"; 	c #37A037",
"> 	c #14D714",
", 	c #04EE04",
"' 	c #00F400",
") 	c #00F200",
"! 	c #00EE00",
"~ 	c #00EB00",
"{ 	c #03E003",
"] 	c #11C311",
"^ 	c #2C892C",
"/ 	c #465046",
"( 	c #474747",
"_ 	c #5A705A",
": 	c #1DCE1D",
"< 	c #00FC00",
"[ 	c #00FA00",
"} 	c #00F700",
"| 	c #00F100",
"1 	c #00ED00",
"2 	c #00EA00",
"3 	c #00E700",
"4 	c #00E400",
"5 	c #00E100",
"6 	c #00DE00",
"7 	c #00DA00",
"8 	c #14AB15",
"9 	c #3E4F3D",
"0 	c #404040",
"a 	c #646464",
"b 	c #32AD32",
"c 	c #00FD00",
"d 	c #00F900",
"e 	c #00F600",
"f 	c #00F300",
"g 	c #00EF00",
"h 	c #00EC00",
"i 	c #00E900",
"j 	c #00E600",
"k 	c #00E300",
"l 	c #00E000",
"m 	c #00DD00",
"n 	c #00D700",
"o 	c #00D300",
"p 	c #00D000",
"q 	c #208420",
"r 	c #3D3D3D",
"s 	c #616861",
"t 	c #12E012",
"u 	c #00FE00",
"v 	c #00FB00",
"w 	c #00F800",
"x 	c #00F500",
"y 	c #00E800",
"z 	c #00E500",
"A 	c #00E200",
"B 	c #00DF00",
"C 	c #00DC00",
"D 	c #00D900",
"E 	c #00D500",
"F 	c #00D200",
"G 	c #00CF00",
"H 	c #00CC00",
"I 	c #00C900",
"J 	c #0AAB0A",
"K 	c #363C36",
"L 	c #0BEC0B",
"M 	c #00F000",
"N 	c #00DB00",
"O 	c #00D800",
"P 	c #00D400",
"Q 	c #00D100",
"R 	c #00CE00",
"S 	c #00CB00",
"T 	c #00C800",
"U 	c #00C500",
"V 	c #00C200",
"W 	c #05AF06",
"X 	c #323832",
"Y 	c #12DF12",
"Z 	c #017E01",
"` 	c #042504",
" .	c #060A06",
"..	c #0A0A0A",
"+.	c #0D0D0D",
"@.	c #0F1410",
"#.	c #112F11",
"$.	c #0B7C0B",
"%.	c #00C700",
"&.	c #00CA00",
"*.	c #00C400",
"=.	c #00C100",
"-.	c #00BE00",
";.	c #00BA00",
">.	c #099E09",
",.	c #2F2F2F",
"'.	c #616161",
").	c #31AB32",
"!.	c #018501",
"~.	c #010501",
"{.	c #040404",
"].	c #1A1A1A",
"^.	c #1D201D",
"/.	c #0E7F0E",
"(.	c #00C300",
"_.	c #00BF00",
":.	c #00BC00",
"<.	c #00B900",
"[.	c #00B600",
"}.	c #00B300",
"|.	c #166D16",
"1.	c #2A2A2A",
"2.	c #586D58",
"3.	c #013901",
"4.	c #020202",
"5.	c #252525",
"6.	c #1E4C1E",
"7.	c #00B800",
"8.	c #00B500",
"9.	c #00B200",
"0.	c #00AF00",
"a.	c #00AB00",
"b.	c #243324",
"c.	c #5F5F5F",
"d.	c #1CC91C",
"e.	c #023902",
"f.	c #030303",
"g.	c #2C2C2C",
"h.	c #235023",
"i.	c #00B400",
"j.	c #00B100",
"k.	c #00AE00",
"l.	c #00A800",
"m.	c #0B7F0B",
"n.	c #232323",
"o.	c #5A645A",
"p.	c #018401",
"q.	c #333333",
"r.	c #167B16",
"s.	c #00AD00",
"t.	c #00AA00",
"u.	c #00A600",
"v.	c #00A300",
"w.	c #00A000",
"x.	c #1F261F",
"y.	c #359935",
"z.	c #050704",
"A.	c #393B39",
"B.	c #01A501",
"C.	c #00A500",
"D.	c #00A200",
"E.	c #009F00",
"F.	c #009C00",
"G.	c #115211",
"H.	c #13CD13",
"I.	c #047D04",
"J.	c #090909",
"K.	c #3E3E3E",
"L.	c #1D771D",
"M.	c #00A100",
"N.	c #009E00",
"O.	c #009B00",
"P.	c #009800",
"Q.	c #057B05",
"R.	c #04E304",
"S.	c #092909",
"T.	c #3B523B",
"U.	c #009D00",
"V.	c #009A00",
"W.	c #009700",
"X.	c #009400",
"Y.	c #018C01",
"Z.	c #181818",
"`.	c #565656",
" +	c #0E110D",
".+	c #474A47",
"++	c #009900",
"@+	c #009600",
"#+	c #009300",
"$+	c #008F00",
"%+	c #008D00",
"&+	c #151515",
"*+	c #00D600",
"=+	c #121212",
"-+	c #4E4E4E",
";+	c #009100",
">+	c #008E00",
",+	c #008B00",
"'+	c #008900",
")+	c #131313",
"!+	c #161616",
"~+	c #009000",
"{+	c #008A00",
"]+	c #008700",
"^+	c #008400",
"/+	c #111111",
"(+	c #4F4F4F",
"_+	c #191D19",
":+	c #535653",
"<+	c #008C00",
"[+	c #008600",
"}+	c #008300",
"|+	c #008100",
"1+	c #0E0E0E",
"2+	c #4C4C4C",
"3+	c #03CE03",
"4+	c #1A371A",
"5+	c #4B5F4B",
"6+	c #008800",
"7+	c #008500",
"8+	c #008200",
"9+	c #007F00",
"0+	c #007800",
"a+	c #0C0C0C",
"b+	c #4A4A4A",
"c+	c #0FB30F",
"d+	c #107910",
"e+	c #297329",
"f+	c #007D00",
"g+	c #007A00",
"h+	c #026202",
"i+	c #090A0A",
"j+	c #297E28",
"k+	c #01B901",
"l+	c #282B28",
"m+	c #5C5E5C",
"n+	c #028102",
"o+	c #008000",
"p+	c #007C00",
"q+	c #007900",
"r+	c #007600",
"s+	c #043704",
"t+	c #414941",
"u+	c #00C600",
"v+	c #00C000",
"w+	c #00BD00",
"x+	c #137C13",
"y+	c #313131",
"z+	c #606060",
"A+	c #287328",
"B+	c #007E00",
"C+	c #007B00",
"D+	c #007500",
"E+	c #007200",
"F+	c #050B05",
"G+	c #129A12",
"H+	c #275227",
"I+	c #383838",
"J+	c #496949",
"K+	c #007700",
"L+	c #007400",
"M+	c #007100",
"N+	c #015001",
"O+	c #374837",
"P+	c #00B700",
"Q+	c #2C552C",
"R+	c #3F3F3F",
"S+	c #4A694A",
"T+	c #007300",
"U+	c #007000",
"V+	c #006D00",
"W+	c #030E03",
"X+	c #393939",
"Y+	c #1C751C",
"Z+	c #00B000",
"`+	c #00A700",
" @	c #00A400",
".@	c #1C771C",
"+@	c #454745",
"@@	c #494949",
"#@	c #606260",
"$@	c #2A722A",
"%@	c #006F00",
"&@	c #006C00",
"*@	c #013701",
"=@	c #363636",
"-@	c #099809",
";@	c #00AC00",
">@	c #00A900",
",@	c #029702",
"'@	c #227422",
")@	c #435943",
"!@	c #515451",
"~@	c #575757",
"{@	c #5A5C5A",
"]@	c #516451",
"^@	c #2B712B",
"/@	c #027C02",
"(@	c #006E00",
"_@	c #006A00",
":@	c #005700",
"<@	c #010101",
"[@	c #2F352F",
"}@	c #059B05",
"|@	c #009500",
"1@	c #009200",
"2@	c #006900",
"3@	c #005D00",
"4@	c #000400",
"5@	c #2B302B",
"6@	c #078B07",
"7@	c #006B00",
"8@	c #006800",
"9@	c #005600",
"0@	c #282828",
"a@	c #135F13",
"b@	c #013500",
"c@	c #000000",
"d@	c #1E2B1E",
"e@	c #096E09",
"f@	c #004B00",
"g@	c #010B01",
"h@	c #1D1D1D",
"i@	c #192019",
"j@	c #0E470E",
"k@	c #046B04",
"l@	c #015801",
"m@	c #023102",
"n@	c #030802",
"o@	c #141414",
"p@	c #101010",
"q@	c #080808",
"r@	c #060606",
"                                                                        ",
"                                                                        ",
"                            . + @ # $ % & *                             ",
"                      = - ; > , ' ) ! ~ { ] ^ / (                       ",
"                  = _ : < [ } ' | 1 2 3 4 5 6 7 8 9 0                   ",
"                a b c < d e f g h i j k l m 7 n o p q r                 ",
"              s t u v w x ) ! ~ y z A B C D E F G H I J K               ",
"            s L c [ } ' M 1 2 3 4 5 6 N O P Q R S T U V W X             ",
"          a Y < d e ) g h 5 Z `  ...+.@.#.$.%.&.%.*.=.-.;.>.,.          ",
"        '.).v w x | ! ~ !.~.{.            ].^./.(._.:.<.[.}.|.1.        ",
"        2.w e f M 1 y 3.4.                    5.6.<.7.8.9.0.a.b.        ",
"      c.d.x ) g h i e.f.                        g.h.i.j.k.a.l.m.n.      ",
"      o.f | ! ~ y p.{.                            q.r.s.t.u.v.w.x.      ",
"      y.M 1 2 3 m z.                                A.B.C.D.E.F.G.      ",
"    # H.h i j k I.J.                                K.L.M.N.O.P.Q.].    ",
"    $ R.y 4 5 6 S.                                    T.U.V.W.X.Y.Z.    ",
"    `.j k l m 7  +                                    .+++@+#+$+%+&+    ",
"    % k B C D *+=+                                    -+X.;+>+,+'+)+    ",
"    & 6 N O E F !+                                    & ~+%+{+]+^+/+    ",
"    (+D n P Q R _+                                    :+<+'+[+}+|+1+    ",
"    2+3+o G H I 4+                                    5+6+7+8+9+0+a+    ",
"    b+c+R S T U d+5.                                @ e+^+|+f+g+h+i+    ",
"      j+&.%.*.=.k+l+                                m+n+o+p+q+r+s+      ",
"      t+u+(.v+w+;.x+y+                            z+A+B+C+0+D+E+F+      ",
"      0 G+_.:.7.8.9.H+I+                        '.J+f+g+K+L+M+N+{.      ",
"        O+;.P+i.j.k.t.Q+R+                    = S+p+q+r+T+U+V+W+        ",
"        X+Y+}.Z+s.t.`+ @.@+@@@            c.#@$@C+0+D+E+%@&@*@4.        ",
"          =@-@;@>@u.v.E.F.,@'@)@!@~@# {@]@^@/@g+K+L+M+(@_@:@<@          ",
"            [@}@C.M.N.O.P.|@1@$+<+'+7+8+9+p+q+r+T+U+&@2@3@4@            ",
"              5@6@U.V.W.X.;+>+,+]+^+|+B+C+0+D+E+%@7@8@9@4@              ",
"                0@a@@+#+~+<+'+[+}+o+f+g+K+L+U+V+_@8@b@c@                ",
"                  n.d@e@,+6+7+8+9+p+q+r+T+U+&@_@f@g@c@                  ",
"                      h@i@j@k@C+p+0+D+T+7@l@m@n@4.                      ",
"                            o@=+p@1+a+..q@r@                            ",
"                                                                        ",
"                                                                        "};
