/* XPM */
static char const* skill_havepre_xpm[] = {
"18 18 3 1",
" 	c None",
".	c #CCCCCC",
"+	c #FFFFFF",
"..................",
".++++++++++++++++.",
".+..+..+..+..+..+.",
".+..+..+..+..+..+.",
".+..+..+..+..+..+.",
".+..+..+..+..+..+.",
".+..+..+..+..+..+.",
".+..+..+..+..+..+.",
".+..+..+..+..+..+.",
".+..+..+..+..+..+.",
".+..+..+..+..+..+.",
".+..+..+..+..+..+.",
".+..+..+..+..+..+.",
".+..+..+..+..+..+.",
".+..+..+..+..+..+.",
".+..+..+..+..+..+.",
".++++++++++++++++.",
".................."};
