/* XPM */
static char const* skill_deps_none_xpm[] = {
"36 36 259 2",
"  	c None",
". 	c #5E5E5E",
"+ 	c #5C5C5C",
"@ 	c #5B5B5B",
"# 	c #5A5A5A",
"$ 	c #585858",
"% 	c #555555",
"& 	c #525252",
"* 	c #505050",
"= 	c #626262",
"- 	c #696455",
"; 	c #B06314",
"> 	c #E13F02",
", 	c #F71E00",
"' 	c #FE0800",
") 	c #FF0000",
"! 	c #FD0000",
"~ 	c #F70700",
"{ 	c #EC1C00",
"] 	c #D33B01",
"^ 	c #9E5711",
"/ 	c #524E40",
"( 	c #474747",
"_ 	c #73694B",
": 	c #D74B04",
"< 	c #FE0900",
"[ 	c #F90000",
"} 	c #F40000",
"| 	c #EE0000",
"1 	c #EA0000",
"2 	c #E40000",
"3 	c #DF0800",
"4 	c #B73F03",
"5 	c #554B32",
"6 	c #404040",
"7 	c #646464",
"8 	c #BB5F10",
"9 	c #FD0900",
"0 	c #F80000",
"a 	c #EF0000",
"b 	c #E90000",
"c 	c #E50000",
"d 	c #E00000",
"e 	c #DB0000",
"f 	c #D60000",
"g 	c #D00700",
"h 	c #934809",
"i 	c #3D3D3D",
"j 	c #69655B",
"k 	c #E53C01",
"l 	c #F30000",
"m 	c #DA0000",
"n 	c #D10000",
"o 	c #CB0000",
"p 	c #C60000",
"q 	c #AC2C01",
"r 	c #3C3B32",
"s 	c #EE2F00",
"t 	c #DF0000",
"u 	c #D00000",
"v 	c #C10000",
"w 	c #BC0000",
"x 	c #AA2100",
"y 	c #38372E",
"z 	c #F40300",
"A 	c #932201",
"B 	c #351B03",
"C 	c #0E0B06",
"D 	c #0A0A0A",
"E 	c #0D0D0D",
"F 	c #161510",
"G 	c #3B240E",
"H 	c #852508",
"I 	c #C90200",
"J 	c #C20000",
"K 	c #BD0000",
"L 	c #B70000",
"M 	c #B30000",
"N 	c #9A2700",
"O 	c #2F2F2F",
"P 	c #616161",
"Q 	c #992101",
"R 	c #080601",
"S 	c #040404",
"T 	c #1A1A1A",
"U 	c #22201C",
"V 	c #83250B",
"W 	c #AE0000",
"X 	c #A80000",
"Y 	c #743A06",
"Z 	c #2A2A2A",
"` 	c #716649",
" .	c #FC0000",
"..	c #4F1F01",
"+.	c #020202",
"@.	c #252525",
"#.	c #523019",
"$.	c #B40000",
"%.	c #B20000",
"&.	c #A90000",
"*.	c #A30000",
"=.	c #9E0500",
"-.	c #36301D",
";.	c #5F5F5F",
">.	c #4F2001",
",.	c #030303",
"'.	c #2C2C2C",
").	c #53331D",
"!.	c #9E0000",
"~.	c #9A0000",
"{.	c #7B2A01",
"].	c #232323",
"^.	c #666152",
"/.	c #9A2101",
"(.	c #333333",
"_.	c #772712",
":.	c #990000",
"<.	c #950000",
"[.	c #8F0400",
"}.	c #27251B",
"|.	c #AF6114",
"1.	c #0C0904",
"2.	c #3C3A37",
"3.	c #9A0201",
"4.	c #940000",
"5.	c #900000",
"6.	c #8B0000",
"7.	c #563006",
"8.	c #E13E02",
"9.	c #942403",
"0.	c #090909",
"a.	c #3E3E3E",
"b.	c #6F2B17",
"c.	c #860000",
"d.	c #6F1E00",
"e.	c #F71D00",
"f.	c #391F08",
"g.	c #504133",
"h.	c #850000",
"i.	c #800000",
"j.	c #770D00",
"k.	c #181818",
"l.	c #565656",
"m.	c #FE0700",
"n.	c #16120D",
"o.	c #4A4845",
"p.	c #8A0000",
"q.	c #7B0000",
"r.	c #760300",
"s.	c #151515",
"t.	c #121212",
"u.	c #4E4E4E",
"v.	c #7C0000",
"w.	c #760000",
"x.	c #710000",
"y.	c #131313",
"z.	c #161616",
"A.	c #770000",
"B.	c #6C0000",
"C.	c #111111",
"D.	c #4F4F4F",
"E.	c #201D18",
"F.	c #555351",
"G.	c #6D0000",
"H.	c #670200",
"I.	c #0E0E0E",
"J.	c #4C4C4C",
"K.	c #432B17",
"L.	c #594D41",
"M.	c #720000",
"N.	c #680000",
"O.	c #620B00",
"P.	c #0C0C0C",
"Q.	c #4A4A4A",
"R.	c #D23901",
"S.	c #89280C",
"T.	c #642F21",
"U.	c #660000",
"V.	c #591800",
"W.	c #090A0A",
"X.	c #9D530F",
"Y.	c #D50000",
"Z.	c #C90301",
"`.	c #2C2B27",
" +	c #5D5C5A",
".+	c #6F0302",
"++	c #3F2101",
"@+	c #4D473B",
"#+	c #CC0000",
"$+	c #87280F",
"%+	c #313131",
"&+	c #606060",
"*+	c #632E21",
"=+	c #650300",
"-+	c #0B0B03",
";+	c #B73C03",
">+	c #5A3720",
",+	c #383838",
"'+	c #5E4A3D",
")+	c #541B00",
"!+	c #50452D",
"~+	c #B50000",
"{+	c #5B3A25",
"]+	c #3F3F3F",
"^+	c #5F4B3E",
"/+	c #6A0000",
"(+	c #120F01",
"_+	c #393939",
":+	c #914408",
"<+	c #C70000",
"[+	c #B80000",
"}+	c #AD0000",
"|+	c #7B2A16",
"1+	c #474643",
"2+	c #494949",
"3+	c #61605E",
"4+	c #642F22",
"5+	c #441E00",
"6+	c #363636",
"7+	c #AC2A00",
"8+	c #A40000",
"9+	c #9A0302",
"0+	c #732E1B",
"a+	c #57483A",
"b+	c #53524F",
"c+	c #575757",
"d+	c #5B5A57",
"e+	c #5E5246",
"f+	c #653023",
"g+	c #5A1500",
"h+	c #010101",
"i+	c #37342B",
"j+	c #AA1F00",
"k+	c #8F0000",
"l+	c #5F1000",
"m+	c #050400",
"n+	c #312F27",
"o+	c #9A2600",
"p+	c #282828",
"q+	c #733505",
"r+	c #000000",
"s+	c #302A18",
"t+	c #7A2701",
"u+	c #810000",
"v+	c #541A00",
"w+	c #100C00",
"x+	c #1D1D1D",
"y+	c #211F16",
"z+	c #552B05",
"A+	c #6F1C00",
"B+	c #770C00",
"C+	c #620A00",
"D+	c #591700",
"E+	c #3E1F00",
"F+	c #0A0800",
"G+	c #141414",
"H+	c #101010",
"I+	c #080808",
"J+	c #060606",
"                                                                        ",
"                                                                        ",
"                            . + @ # $ % & *                             ",
"                      = - ; > , ' ) ! ~ { ] ^ / (                       ",
"                  = _ : < ) ) ) ) ! [ } | 1 2 3 4 5 6                   ",
"                7 8 9 ) ) ) ) ) ! 0 } a b c d e f g h i                 ",
"              j k ) ) ) ) ) ) ! [ l | 1 2 d m f n o p q r               ",
"            j s ) ) ) ) ) ) ! [ l | 1 c t m f u o p v w x y             ",
"          7 k ) ) ) ) ) ) z A B C D E F G H I o p J K L M N O           ",
"        P 8 ) ) ) ) ) ) Q R S             T U V J w L M W X Y Z         ",
"        ` 9 ) ) ) )  ...+.                    @.#.$.%.W &.*.=.-.        ",
"      ;.: ) ) ) ) ) >.,.                        '.).W X *.!.~.{.].      ",
"      ^.< ) ) ) ) /.S                             (._.*.!.:.<.[.}.      ",
"      |.) ) ) ) z 1.                                2.3.:.4.5.6.7.      ",
"    # 8.) ) ) ! 9.0.                                a.b.4.5.6.c.d.T     ",
"    $ e.) ) ! 0 f.                                    g.5.6.h.i.j.k.    ",
"    l.m.) ! 0 l n.                                    o.p.c.i.q.r.s.    ",
"    % ) ! 0 } a t.                                    u.c.i.v.w.x.y.    ",
"    & ! 0 l a b z.                                    & i.v.A.x.B.C.    ",
"    D.~ } a 1 c E.                                    F.v.A.x.G.H.I.    ",
"    J.{ | b c t K.                                    L.A.M.B.N.O.P.    ",
"    Q.R.1 c t e S.@.                                @ T.x.G.N.U.V.W.    ",
"      X.2 t e Y.Z.`.                                 +.+G.N.U.U.++      ",
"      @+3 m f u #+$+%+                            &+*+G.N.U.U.=+-+      ",
"      6 ;+Y.u o p v >+,+                        P '+B.N.U.U.U.)+S       ",
"        !+g #+p v w ~+{+]+                    = ^+/+N.U.U.U.=+(+        ",
"        _+:+<+J w [+%.}+|+1+2+            ;.3+4+G.N.U.U.U.U.5++.        ",
"          6+7+w [+M }+X 8+9+0+a+b+c+# d+e+f+.+B.N.U.U.U.U.g+h+          ",
"            i+j+%.}+X 8+!.~.<.k+p.c.i.v.A.M.B.N.U.U.U.U.l+m+            ",
"              n+o+X 8+!.~.<.5.6.h.i.v.A.x.G.N.U.U.U.U.g+m+              ",
"                p+q+=.~.<.k+6.h.i.v.w.M.G.N.U.U.U.=+5+r+                ",
"                  ].s+t+[.6.h.u+q.w.M.G.N.U.U.=+v+w+r+                  ",
"                      x+y+z+A+B+r.M.G.H.C+D+E+F++.                      ",
"                            G+t.H+I.P.D I+J+                            ",
"                                                                        ",
"                                                                        "};
